<svg width="48" height="48" viewBox="0 0 48 48" fill="none" xmlns="http://www.w3.org/2000/svg">
  <!-- Body - armored soldier -->
  <circle cx="24" cy="24" r="20" fill="#1A237E" />
  
  <!-- Armor plates -->
  <path d="M24 8C29 8 33 12 34 18C35 24 33 30 31 32C29 34 19 34 17 32C15 30 13 24 14 18C15 12 19 8 24 8Z" fill="#3F51B5" />
  <path d="M16 16C18 13 21 12 24 12C27 12 30 13 32 16C32 20 31 24 24 24C17 24 16 20 16 16Z" fill="#7986CB" />
  
  <!-- Face shield/helmet -->
  <path d="M18 20C18 17 20 14 24 14C28 14 30 17 30 20C30 23 28 23 24 23C20 23 18 23 18 20Z" fill="#C5CAE9" />
  <path d="M20 17C20 15 22 14 24 14C26 14 28 15 28 17" stroke="#5C6BC0" stroke-width="1" />
  
  <!-- Advanced weapon -->
  <rect x="28" y="22" width="20" height="3" rx="1" fill="#212121" />
  <rect x="26" y="21" width="4" height="5" rx="1" fill="#424242" />
  <rect x="36" y="20" width="4" height="2" fill="#616161" />
  <rect x="42" y="21" width="2" height="5" fill="#616161" />
  <rect x="30" y="21" width="6" height="1" fill="#EF5350" />
  
  <!-- Lights/details -->
  <circle cx="32" cy="20" r="1" fill="#76FF03" />
  <path d="M18 28C22 30 26 30 30 28" stroke="#3949AB" stroke-width="1.5" />
</svg>
