<svg width="100" height="100" viewBox="0 0 100 100" fill="none" xmlns="http://www.w3.org/2000/svg">
  <!-- Main wall background -->
  <rect width="100" height="100" fill="#5D4037" />
  
  <!-- Brick pattern -->
  <rect x="0" y="0" width="50" height="20" fill="#6D4C41" />
  <rect x="50" y="0" width="50" height="20" fill="#5D4037" />
  
  <rect x="0" y="20" width="25" height="20" fill="#5D4037" />
  <rect x="25" y="20" width="50" height="20" fill="#6D4C41" />
  <rect x="75" y="20" width="25" height="20" fill="#5D4037" />
  
  <rect x="0" y="40" width="50" height="20" fill="#6D4C41" />
  <rect x="50" y="40" width="50" height="20" fill="#5D4037" />
  
  <rect x="0" y="60" width="25" height="20" fill="#5D4037" />
  <rect x="25" y="60" width="50" height="20" fill="#6D4C41" />
  <rect x="75" y="60" width="25" height="20" fill="#5D4037" />
  
  <rect x="0" y="80" width="50" height="20" fill="#6D4C41" />
  <rect x="50" y="80" width="50" height="20" fill="#5D4037" />
  
  <!-- Cracks for detail -->
  <path d="M10 15L25 5" stroke="#4E342E" stroke-width="1" />
  <path d="M60 25L75 45" stroke="#4E342E" stroke-width="1" />
  <path d="M30 55L45 75" stroke="#4E342E" stroke-width="1" />
  <path d="M80 85L95 65" stroke="#4E342E" stroke-width="1" />
</svg>
