<svg width="100" height="100" viewBox="0 0 100 100" fill="none" xmlns="http://www.w3.org/2000/svg">
  <!-- Metal wall background - sci-fi bunker wall -->
  <rect width="100" height="100" fill="#263238" />
  
  <!-- Metal panel pattern -->
  <rect x="5" y="5" width="90" height="90" rx="2" fill="#37474F" stroke="#546E7A" stroke-width="1" />
  
  <!-- Horizontal reinforced bars -->
  <rect x="0" y="25" width="100" height="5" fill="#455A64" />
  <rect x="0" y="25" width="100" height="1" fill="#78909C" />
  
  <rect x="0" y="50" width="100" height="5" fill="#455A64" />
  <rect x="0" y="50" width="100" height="1" fill="#78909C" />
  
  <rect x="0" y="75" width="100" height="5" fill="#455A64" />
  <rect x="0" y="75" width="100" height="1" fill="#78909C" />
  
  <!-- Vertical supports -->
  <rect x="25" y="0" width="5" height="100" fill="#455A64" />
  <rect x="25" y="0" width="1" height="100" fill="#78909C" />
  
  <rect x="50" y="0" width="5" height="100" fill="#455A64" />
  <rect x="50" y="0" width="1" height="100" fill="#78909C" />
  
  <rect x="75" y="0" width="5" height="100" fill="#455A64" />
  <rect x="75" y="0" width="1" height="100" fill="#78909C" />
  
  <!-- Rivets and details -->
  <circle cx="25" cy="25" r="2" fill="#CFD8DC" />
  <circle cx="50" cy="25" r="2" fill="#CFD8DC" />
  <circle cx="75" cy="25" r="2" fill="#CFD8DC" />
  
  <circle cx="25" cy="50" r="2" fill="#CFD8DC" />
  <circle cx="50" cy="50" r="2" fill="#CFD8DC" />
  <circle cx="75" cy="50" r="2" fill="#CFD8DC" />
  
  <circle cx="25" cy="75" r="2" fill="#CFD8DC" />
  <circle cx="50" cy="75" r="2" fill="#CFD8DC" />
  <circle cx="75" cy="75" r="2" fill="#CFD8DC" />
  
  <!-- Caution stripes in corners -->
  <path d="M0 0L10 0L0 10Z" fill="#FBC02D" />
  <path d="M100 0L100 10L90 0Z" fill="#FBC02D" />
  <path d="M0 100L0 90L10 100Z" fill="#FBC02D" />
  <path d="M100 100L90 100L100 90Z" fill="#FBC02D" />
  
  <!-- Warning text -->
  <path d="M37 13H63V17H37V13Z" fill="#E65100" />
  <path d="M40 83H60V87H40V83Z" fill="#E65100" />
</svg>
