<svg width="48" height="48" viewBox="0 0 48 48" fill="none" xmlns="http://www.w3.org/2000/svg">
  <!-- Body base -->
  <circle cx="24" cy="24" r="20" fill="#8BC34A" />
  
  <!-- Body shadows and details -->
  <path d="M24 4C13.0589 4 4 13.0589 4 24C4 34.9411 13.0589 44 24 44C34.9411 44 44 34.9411 44 24C44 13.0589 34.9411 4 24 4ZM24 40C15.1782 40 8 32.8218 8 24C8 15.1782 15.1782 8 24 8C32.8218 8 40 15.1782 40 24C40 32.8218 32.8218 40 24 40Z" fill="#689F38" opacity="0.6" />
  
  <!-- Tattered clothes -->
  <path d="M16 23C16 17.4772 19.5817 13 24 13C28.4183 13 32 17.4772 32 23V33C32 33.5523 31.5523 34 31 34H17C16.4477 34 16 33.5523 16 33V23Z" fill="#5D4037" opacity="0.6" />
  <path d="M14 27H19L17 33H12L14 27Z" fill="#5D4037" opacity="0.7" />
  <path d="M34 25H29L31 32H36L34 25Z" fill="#5D4037" opacity="0.7" />
  
  <!-- Face details - red eyes -->
  <circle cx="19" cy="19" r="3" fill="#B71C1C" />
  <circle cx="29" cy="19" r="3" fill="#B71C1C" />
  <circle cx="19" cy="19" r="1" fill="#FF5252" />
  <circle cx="29" cy="19" r="1" fill="#FF5252" />
  
  <!-- Wounds and details -->
  <path d="M22 13L26 17" stroke="#B71C1C" stroke-width="1.5" stroke-linecap="round" />
  <path d="M26 13L22 17" stroke="#B71C1C" stroke-width="1.5" stroke-linecap="round" />
  <path d="M12 20L16 24" stroke="#B71C1C" stroke-width="1.5" stroke-linecap="round" />
  <path d="M36 20L32 24" stroke="#B71C1C" stroke-width="1.5" stroke-linecap="round" />
  
  <!-- Gruesome mouth -->
  <path d="M18 32C18 32 24 36 30 32" stroke="#B71C1C" stroke-width="2" stroke-linecap="round" />
  <path d="M20 32L18 30M24 33L24 31M28 32L30 30" stroke="#B71C1C" stroke-width="1" stroke-linecap="round" />
  
  <!-- Blood drips -->
  <circle cx="15" cy="26" r="2" fill="#D32F2F" />
  <circle cx="33" cy="28" r="2" fill="#D32F2F" />
  <circle cx="24" cy="38" r="2" fill="#D32F2F" />
  <path d="M15 24V26M33 26V28M24 36V38" stroke="#B71C1C" stroke-width="1" />
  
  <!-- Additional gore details -->
  <circle cx="21" cy="27" r="1" fill="#D32F2F" />
  <circle cx="27" cy="27" r="1" fill="#D32F2F" />
  <path d="M24 12C22 9 26 9 24 12Z" fill="#D32F2F" />
</svg>
