<svg width="48" height="48" viewBox="0 0 48 48" fill="none" xmlns="http://www.w3.org/2000/svg">
  <!-- Body - decayed zombie -->
  <circle cx="24" cy="24" r="20" fill="#4E342E" />
  
  <!-- Rotting flesh texture -->
  <path d="M24 4C35 4 42 14 44 24C46 34 35 44 24 44C13 44 2 34 4 24C6 14 13 4 24 4Z" fill="#6D4C41" />
  <path d="M14 14C10 18 8 22 8 28C8 34 10 38 14 42" stroke="#3E2723" stroke-width="1.5" stroke-dasharray="2 2" />
  <path d="M34 14C38 18 40 22 40 28C40 34 38 38 34 42" stroke="#3E2723" stroke-width="1.5" stroke-dasharray="2 2" />
  
  <!-- Glowing eyes -->
  <circle cx="16" cy="18" r="4" fill="#2d0000" />
  <circle cx="16" cy="18" r="2" fill="#FF1744" />
  <circle cx="32" cy="18" r="4" fill="#2d0000" />
  <circle cx="32" cy="18" r="2" fill="#FF1744" />
  
  <!-- Decayed mouth -->
  <path d="M18 32C20 35 28 35 30 32" fill="#3E2723" />
  <path d="M18 32C20 35 28 35 30 32" stroke="#3E2723" stroke-width="2" />
  
  <!-- Teeth -->
  <path d="M20 32L21 35" stroke="#EEEEEE" stroke-width="1.5" />
  <path d="M24 32L24 36" stroke="#EEEEEE" stroke-width="1.5" />
  <path d="M28 32L27 35" stroke="#EEEEEE" stroke-width="1.5" />
  
  <!-- Blood and gore -->
  <circle cx="13" cy="28" r="2" fill="#B71C1C" />
  <circle cx="35" cy="27" r="2" fill="#B71C1C" />
  <path d="M13 28L11 32" stroke="#B71C1C" stroke-width="1" />
  <path d="M35 27L38 30" stroke="#B71C1C" stroke-width="1" />
  
  <!-- Wounds and features -->
  <path d="M10 20L16 19" stroke="#3E2723" stroke-width="2" stroke-linecap="round" />
  <path d="M38 20L32 19" stroke="#3E2723" stroke-width="2" stroke-linecap="round" />
  <path d="M24 10C26 12 25 14 24 16" stroke="#B71C1C" stroke-width="2" />
</svg>
